<?xml version="1.0" encoding="utf-8"?>
<svg xmlns="http://www.w3.org/2000/svg" width="" height="" viewBox="0 0 122 58" fill="none">
<g clip-path="url(#clip0_168_5701)">
<path d="M11.2346 2.22635C16.8237 0.34249 22.4127 2.68304 24.2193 8.10627C25.3484 11.5886 25.3484 17.5826 21.1707 19.0098C19.2512 19.6378 17.5011 19.0098 16.7108 16.6122C15.9204 14.2716 16.4849 11.3031 15.6946 8.79131C15.5816 8.44879 14.9606 6.50784 12.9282 7.19288C7.96017 8.90548 6.83107 21.6929 9.03282 28.4291C10.1619 31.8543 12.9282 35.9645 17.2188 34.4803C20.0981 33.5098 22.074 30.6555 21.5659 26.6023C21.2272 24.2618 21.9611 23.4626 22.8079 23.1771C23.8241 22.8346 25.0661 23.2342 25.8565 25.8602C27.5502 31.4547 24.2193 37.62 16.9366 40.0748C9.37156 42.5866 3.72602 39.0472 1.29844 31.626C-1.86306 21.9212 0.508067 5.8228 11.2346 2.22635Z" fill="#00B98C"/>
<path d="M46.6885 8.73429C48.3257 8.56303 49.85 9.36225 50.0194 10.8465C50.0759 11.2461 50.0194 11.6457 49.85 12.1024C49.5678 12.9587 47.1966 20.38 47.5354 23.2343C47.5918 23.7481 47.7612 24.4902 48.3822 24.376C50.0194 24.2048 51.826 18.5532 52.1647 17.3544C52.3905 16.6122 53.0115 16.2697 53.6326 16.1556C54.4229 16.0414 55.2698 16.441 55.3827 17.2973C55.3827 17.4115 55.3827 17.4685 55.3827 17.5827C54.9875 22.6634 52.5034 29.9705 47.2531 30.5985C44.8255 30.8839 43.1883 29.5138 42.285 27.4016C40.4785 29.7993 37.8815 31.6831 35.0023 32.0256C30.994 32.4823 28.5099 29.7422 28.0583 26.0315C27.3808 19.752 32.7441 10.3327 39.6881 9.53351C40.9866 9.36225 42.6802 9.47642 43.9787 10.1044C44.8255 9.30516 45.7853 8.84847 46.6885 8.73429ZM41.6076 19.6378C41.8334 17.6398 42.1157 15.813 42.3979 14.5C38.5025 15.813 34.8329 22.5493 35.0587 24.8327C35.1152 25.5748 35.6798 25.9745 36.3008 25.9174C37.9944 25.689 40.1397 22.4351 41.6076 19.6378Z" fill="#00B98C"/>
<path d="M52.8986 16.5551C53.8583 16.5551 54.7616 17.2402 54.7616 19.3524C54.7616 22.6063 56.9069 24.1477 58.7699 24.1477C60.1249 24.1477 61.1975 23.4055 61.1975 22.378C61.1975 19.8091 54.31 19.9803 54.2535 14.6142C54.2535 10.2756 58.7135 8.27759 62.7218 8.27759C66.1091 8.27759 70.061 9.59058 70.061 13.3583C70.061 15.9272 68.3109 17.1831 66.5608 17.2402C64.9236 17.2402 63.3428 16.1555 62.8347 13.9292C62.8347 13.7579 62.5524 13.7579 62.2137 13.7579C61.4233 13.7579 60.0119 14.1004 60.0119 14.4429C60.0119 15.2422 68.2544 18.1536 68.2544 23.6339C68.2544 27.687 63.6251 30.0847 59.1651 30.1418C54.5922 30.1988 50.0193 27.687 49.9629 22.6063C50.0758 20.8366 50.5274 16.6122 52.8986 16.5551Z" fill="#00B98C"/>
<path d="M71.6982 12.2736C72.7709 9.64764 74.6904 8.73425 76.384 8.84842C77.9648 8.9626 79.3197 10.0472 79.2633 11.5315C79.2633 11.9311 79.0939 12.3307 78.8681 12.7303C78.4164 13.5295 74.8033 20.3799 74.6339 23.2343C74.5775 23.748 74.6339 24.4902 75.2549 24.5472C76.8921 24.6614 79.6585 19.4665 80.223 18.2677C80.6182 17.5827 81.2957 17.3543 81.9167 17.3543C82.7635 17.4114 83.4974 17.9252 83.441 18.7815C83.441 18.8957 83.441 18.9528 83.3845 19.0669C82.1425 23.9764 78.36 30.7697 73.1096 30.4272C69.6659 30.1988 68.3674 27.0591 68.5932 23.4626C68.819 19.0098 71.1337 13.815 71.6982 12.2736ZM74.0694 3.13976C74.1823 1.02756 75.763 -0.114174 77.739 -9.44827e-07C79.8843 0.114172 81.4086 1.65551 81.2957 3.48228C81.1827 5.5374 78.9245 7.07874 76.9486 6.96457C74.7468 6.79331 73.9565 4.85236 74.0694 3.13976Z" fill="#00B98C"/>
<path d="M89.2558 13.3583C91.5705 11.7028 93.9416 10.8465 96.2563 11.189C98.7968 11.5886 100.321 13.3583 99.8694 15.9272C99.4178 18.8957 96.3128 23.5768 95.974 25.8032C95.8611 26.3741 95.9176 27.1733 96.5386 27.2304C98.0629 27.4587 101.281 22.4922 101.958 21.4075C102.41 20.7225 103.087 20.5512 103.708 20.6654C104.499 20.7796 105.233 21.4075 105.12 22.2638C105.12 22.378 105.063 22.4351 105.007 22.5492C103.313 27.3445 97.6677 33.5099 92.4173 32.7107C88.9736 32.1969 88.2396 29.1713 88.5784 26.9449C89.03 23.9764 92.1915 17.9252 92.3044 16.9548C92.3044 16.8406 92.3044 16.6693 92.1351 16.6122C91.3447 16.4981 88.2396 19.6949 85.5298 23.0059C83.6103 25.3465 82.0296 27.8012 80.9569 29.1142C80.6746 30.5414 79.9972 30.7697 79.1503 30.5985C77.626 30.3701 76.1582 29.1713 76.4969 26.7737C76.8357 24.4331 79.5455 17.0689 81.9731 12.1595C82.9893 10.0473 85.2475 9.41933 87.0541 9.70476C88.6913 9.99019 89.8204 10.9036 89.5946 12.2737C89.5946 12.6733 89.5381 13.0158 89.2558 13.3583Z" fill="#00B98C"/>
<path d="M113.306 31.2835L113.024 31.1693C110.257 34.5374 106.588 36.1929 102.466 34.8799C98.0629 33.4528 96.5951 29.6851 97.8371 25.6319C99.8695 19.124 108.451 13.9291 114.717 15.9272C117.596 16.8406 118.217 18.7815 117.596 20.7225C117.484 21.1221 117.258 21.5217 116.919 21.8642C117.145 22.8917 116.975 24.376 116.693 25.2894C116.354 26.3169 115.733 27.2874 115.395 27.687C116.467 27.9725 117.935 27.687 118.726 26.8307C119.29 26.2028 120.137 26.0886 120.814 26.3169C121.605 26.5453 122.113 27.1732 121.887 27.9154C121.831 28.0295 121.831 28.0866 121.774 28.2008C119.347 32.4823 115.79 32.0827 113.306 31.2835ZM109.58 22.7205C107.435 23.4626 104.104 25.5748 103.37 27.9154C103.087 28.7717 103.031 30.0847 104.442 30.5414C106.08 31.0551 107.943 29.7421 109.241 28.2008C108.338 26.9449 108.846 24.8327 109.354 23.1772C109.354 23.1201 109.467 22.8917 109.58 22.7205Z" fill="#00B98C"/>
<path d="M46.2369 37.1633C46.2369 37.3917 46.2369 37.62 46.1804 37.8484C45.5594 39.7322 45.2207 42.244 45.4465 43.7854C45.5594 44.6988 45.8417 45.4409 46.5192 45.3267C47.0273 45.2696 47.8176 44.6988 48.6645 42.7007C47.8741 42.0157 47.5918 40.931 47.4789 40.246C47.3095 38.6476 47.9305 37.1633 49.3419 36.9921C50.8662 36.8208 51.7131 38.3051 51.8824 39.6751C51.9953 40.5314 51.826 41.5019 51.6001 42.0157C52.2776 41.9015 53.068 41.0452 53.2938 40.3602C53.4632 39.8464 53.9148 39.6181 54.31 39.561C54.8181 39.5039 55.2697 39.6751 55.3262 40.1889C55.3262 40.246 55.3262 40.3031 55.3262 40.3602C55.0439 43.3287 52.9551 44.0708 51.3179 44.2421H51.1485C50.4146 46.4685 49.1161 48.6948 46.1804 49.0373C43.8658 49.3228 42.5108 48.181 41.7769 46.2972C40.8172 48.2952 39.4058 49.8936 37.4863 50.122C35.2845 50.4074 34.3813 48.6377 34.099 46.4685C33.7603 43.7854 34.5506 40.3602 34.72 39.3326C35.0587 37.62 36.1314 36.8779 37.1476 36.7066C38.1073 36.5925 39.0671 37.1062 39.18 37.9625C39.2364 38.1909 39.18 38.4763 39.0671 38.7618C38.8977 39.2755 37.4863 43.8425 37.7121 45.4409C37.7686 45.8976 37.9944 46.2972 38.3896 46.2972C39.5752 46.1259 41.043 41.559 41.6075 39.5039C41.8334 37.9625 42.2286 36.1358 44.0916 35.8503C45.1078 35.7362 46.124 36.2499 46.2369 37.1633Z" fill="white"/>
<path d="M64.1332 34.8228C65.1494 34.8228 65.9962 35.3937 66.0527 36.307C66.0527 36.5354 65.9962 36.8208 65.8833 37.0492C65.6575 37.5629 63.738 41.9015 63.738 43.6712C63.738 44.0137 63.7945 44.4133 64.1896 44.4133C65.2058 44.4133 66.6737 41.1023 66.956 40.3602C67.1253 39.9035 67.5205 39.7322 67.9157 39.7322C68.4238 39.7322 68.9319 40.0177 68.9319 40.5315C68.9319 40.5885 68.9319 40.6456 68.9319 40.7027C68.3673 43.7854 66.3914 48.0669 63.1734 48.0669C61.6492 48.0669 60.7459 47.1535 60.3507 45.7834C59.1087 47.0964 57.415 48.124 55.6649 48.124C53.1808 48.124 51.8259 46.2972 51.8259 44.0137C51.7695 40.1318 55.6649 34.7657 59.9555 34.7086C60.7459 34.7086 61.7621 34.8799 62.5524 35.3366C63.0041 35.0511 63.6251 34.8799 64.1332 34.8228ZM60.4071 41.1594C60.633 39.9606 60.9717 38.8759 61.1975 38.0767C58.7135 38.6476 56.0601 42.4724 56.0601 43.8996C56.0601 44.3563 56.3423 44.6417 56.7375 44.6417C57.8102 44.5846 59.3345 42.7578 60.4071 41.1594Z" fill="white"/>
<path d="M72.1499 46.5826C71.1337 47.7244 69.8917 48.4665 68.3674 48.3523C66.1656 48.1811 65.5446 46.2972 65.714 44.0708C65.8834 41.3307 67.2947 38.1338 67.6899 37.2204C68.3674 35.622 69.4965 35.0511 70.5692 35.1082C71.5289 35.1653 72.3757 35.8504 72.3193 36.7637C72.3193 36.9921 72.2064 37.2775 72.037 37.5059C71.7547 37.9626 69.553 42.187 69.44 43.7854C69.3836 44.2421 69.4965 44.6988 69.9481 44.7559C71.4724 44.87 73.7871 38.7047 74.2388 37.1063C74.5775 35.9645 75.4243 35.5078 76.4405 35.5649C77.739 35.6791 78.6423 36.5354 78.5294 37.8484C78.4165 39.3326 77.3438 43.1004 76.2147 46.5826C78.0213 45.2126 79.0939 43.3858 79.9972 41.4448C80.223 41.0452 80.6747 40.874 81.0134 40.874C81.5215 40.9311 81.9731 41.2165 81.9167 41.7874C81.9167 41.8444 81.9167 41.9015 81.8602 41.9586C80.5053 46.811 77.739 48.9232 74.9162 50.0078C74.6339 50.8641 74.3517 51.6633 74.0694 52.2913C72.0934 57.2007 70.6256 58.1141 68.5368 58C65.4882 57.7716 64.3026 55.4881 64.4155 53.2618C64.6413 49.6653 68.0851 49.437 71.5289 48.5807C71.8112 47.8956 71.9805 47.2677 72.1499 46.5826ZM70.8514 51.0925C68.9319 51.435 67.4641 51.7204 67.4077 52.8622C67.3512 53.7755 68.3109 54.2893 68.6497 54.2893C69.3836 54.3464 70.1175 53.0334 70.8514 51.0925Z" fill="white"/>
<path d="M80.6746 40.9311C81.2392 41.0452 81.7473 41.559 81.5214 42.8149C81.2392 44.8129 82.3683 45.8976 83.4974 46.0688C84.2878 46.183 85.0217 45.8405 85.1346 45.2696C85.3604 43.7283 81.1827 43.1574 81.6908 39.9035C82.086 37.2775 84.9652 36.5354 87.3928 36.8779C89.4252 37.1633 91.6834 38.3622 91.3447 40.6456C91.1189 42.187 89.9333 42.8149 88.8606 42.6437C87.9009 42.4724 86.9976 41.6732 86.9412 40.3031C86.9412 40.1889 86.7718 40.1889 86.6024 40.1318C86.0943 40.0748 85.2475 40.1318 85.2475 40.3602C85.191 40.874 89.8768 43.3858 89.3687 46.6968C89.03 49.1515 85.9814 50.1791 83.2716 49.7224C80.5052 49.3228 77.9648 47.3818 78.4164 44.2992C78.5293 43.2145 79.2068 40.7027 80.6746 40.9311Z" fill="white"/>
</g>
<defs>
<clipPath id="clip0_168_5701">
<rect width="122" height="58" fill="white"/>
</clipPath>
</defs>
</svg>