<svg xmlns="http://www.w3.org/2000/svg" width="102" height="24" fill="none"><path fill="#E8FF01" fill-rule="evenodd" d="M16.846 4.13 20.338 0H5.104L0 6.038V24l4.154-4.902v-6.722h5.699l3.471-4.091h6.959L6.999 24h5.204L28.932 4.13H16.846Zm-.028.024H7.626L4.174 8.222h9.192l3.452-4.068Z" clip-rule="evenodd"/><path fill="#FEFEFE" d="M35.123 20.893c3.301 0 5.57-2.064 5.777-4.747v-.206h-2.889c-.206 1.651-1.238 2.476-2.889 2.476-1.65 0-3.301-1.031-3.301-3.508V12.02c0-2.476 1.65-3.508 3.302-3.508 1.65 0 2.682.826 2.888 2.477h2.89v-.207c-.207-2.682-2.477-4.746-5.779-4.746-3.508 0-6.19 2.27-6.19 6.19v2.477c0 3.92 2.682 6.19 6.19 6.19Zm8.873-.207 1.032-2.889h6.396l1.032 2.89h2.89v-.207L49.98 6.242h-3.508L41.107 20.48v.206h2.889Zm2.063-5.571 2.064-5.984h.206l2.064 5.984v.206h-4.334v-.206Zm15.683 5.778c3.508 0 5.985-1.857 5.985-4.54 0-3.095-2.477-3.715-4.54-4.127l-2.064-.413c-1.032-.206-2.063-.413-2.063-1.65 0-1.032 1.031-1.652 2.476-1.652 1.857 0 2.889.826 2.889 2.477h2.889v-.207c0-2.682-2.27-4.746-5.572-4.746s-5.572 1.857-5.572 4.334c0 2.889 2.477 3.714 4.54 4.127l2.064.412c1.032.207 2.063.413 2.063 1.445 0 1.444-1.238 2.063-2.888 2.063-2.064 0-3.302-.825-3.302-2.476h-2.889v.207c0 2.682 2.476 4.746 5.984 4.746Zm10.73-.207V6.242h-2.888v14.444h2.889Zm5.366 0v-9.698h.206l5.778 9.698h3.508V6.242h-2.889v9.698h-.206l-5.778-9.698h-3.508v14.444h2.889Zm17.54.207c3.508 0 6.191-2.27 6.191-6.191v-2.476c0-3.92-2.683-6.191-6.19-6.191-3.509 0-6.192 2.27-6.192 6.19v2.477c0 3.92 2.683 6.19 6.191 6.19Zm0-2.477c-1.651 0-3.302-1.031-3.302-3.508V12.02c0-2.476 1.651-3.508 3.302-3.508 1.65 0 3.302 1.032 3.302 3.508v2.89c0 2.476-1.651 3.507-3.302 3.507Z"/></svg>