<svg xmlns="http://www.w3.org/2000/svg" version="1.1" width="100%"
    viewBox="206.005943163727 132.6910948543639 137.98811367254598 132.9026639938762">
    <defs>
        <linearGradient id="myGradient" x1="0%" y1="0%" x2="100%" y2="100%">
            <stop offset="0%" style="stop-color:#62C7FF;stop-opacity:1" />
            <stop offset="100%" style="stop-color:#522FA5;stop-opacity:1" />
        </linearGradient>
    </defs>
    <g
        data-paper-data="{&quot;isIcon&quot;:&quot;true&quot;,&quot;iconType&quot;:&quot;icon&quot;,&quot;rawIconId&quot;:&quot;3964630&quot;,&quot;source&quot;:&quot;noun&quot;,&quot;selectedEffects&quot;:{&quot;container&quot;:&quot;&quot;,&quot;transformation&quot;:&quot;&quot;,&quot;pattern&quot;:&quot;&quot;},&quot;isDetailed&quot;:false,&quot;iconStyle&quot;:&quot;standalone&quot;,&quot;bounds&quot;:{&quot;x&quot;:206.005943163727,&quot;y&quot;:132.6910948543639,&quot;width&quot;:137.98811367254598,&quot;height&quot;:132.9026639938762},&quot;fillRule&quot;:&quot;evenodd&quot;,&quot;suitableAsStandaloneIcon&quot;:true}"
        fill-rule="evenodd">
        <path
            d="M298.84515,153.96839l44.84905,93.48151c0.46504,1.24852 0.38642,2.63479 -0.21676,3.82281c-0.73599,1.35651 -2.07633,2.2791 -3.60605,2.48285l-89.26459,11.82313c-0.20967,0.0201 -0.42091,0.0201 -0.63056,0h-1.93111l-0.33499,-0.15764h-0.11823l-39.41041,-22.68069c-0.05537,-0.05064 -0.11468,-0.09675 -0.17735,-0.13794c-0.147,-0.08532 -0.28553,-0.18424 -0.41381,-0.29558l-0.33499,-0.29558l-0.33499,-0.35469l-0.17735,-0.33499l-0.23646,-0.3941c-0.08001,-0.1338 -0.15232,-0.27193 -0.21676,-0.41381c-0.05911,-0.13794 -0.15764,-0.29558 -0.15764,-0.43352c-0.04848,-0.14188 -0.08808,-0.28671 -0.11823,-0.43352c-0.00946,-0.15744 -0.00946,-0.31548 0,-0.47293c-0.01064,-0.15095 -0.01064,-0.30228 0,-0.45322c-0.00985,-0.15095 -0.00985,-0.30228 0,-0.45322c-0.00985,-0.15744 -0.00985,-0.31548 0,-0.47293c0.02345,-0.15291 0.05635,-0.30425 0.09852,-0.45322c0.05911,-0.15764 0.15764,-0.3941 0.15764,-0.47293v-0.21676l44.47465,-101.26506c0.06049,-0.12493 0.13301,-0.24376 0.21676,-0.35469c0.07803,-0.14877 0.16355,-0.29341 0.25617,-0.43352l0.29558,-0.33499l0.33499,-0.3744l0.35469,-0.25617c0.12276,-0.10936 0.25459,-0.20829 0.3941,-0.29558l0.3744,-0.19705l0.45322,-0.19705c0.13518,-0.04848 0.27351,-0.08788 0.41381,-0.11823l0.47293,-0.11823c0.14385,-0.02049 0.28966,-0.02049 0.43352,0h1.43848l0.45322,0.19705l0.3941,0.13794h0.11823l39.41041,18.66083l0.19705,0.11823l0.45322,0.27587l0.27587,0.19705c0.20887,0.15646 0.40041,0.33479 0.57145,0.53204l0.13794,0.15764l0.3744,0.51234l0.13794,0.25617zM279.23847,179.86103l9.04469,-21.41956l-25.55766,-12.07929zM276.26298,186.89579l-19.90226,-40.39568l-38.81926,88.39756l40.37597,-4.65043zM275.5733,228.31614l20.02049,-2.2661l-10.10877,-20.35548l2.79814,-7.38945l13.85276,28.04051l27.92228,14.93654l-35.27232,-73.52013l-37.02608,87.68817l69.36233,-9.16292l-27.74493,-14.85773l-26.28674,2.97549zM222.94069,240.09985l24.80886,14.28628l7.5865,-17.97115z"
            data-paper-data="{&quot;isPathIcon&quot;:true}" style="fill: url(#myGradient);"></path>
    </g>
</svg>